<?xml version="1.0" encoding="utf-8"?>
<!-- Svg Vector Icons : http://www.onlinewebfonts.com/icon -->
<!DOCTYPE svg PUBLIC "-//W3C//DTD SVG 1.1//EN" "http://www.w3.org/Graphics/SVG/1.1/DTD/svg11.dtd">
<svg version="1.1" xmlns="http://www.w3.org/2000/svg" xmlns:xlink="http://www.w3.org/1999/xlink" x="0px" y="0px" viewBox="0 0 256 256" enable-background="new 0 0 256 256" xml:space="preserve">
<metadata> Svg Vector Icons : http://www.onlinewebfonts.com/icon </metadata>
<g><g><g><path fill="#000000" d="M121.1,10.7c-0.7,0.4-3.4,3.7-6.1,7.3l-4.8,6.6l-6.7-4.6c-3.7-2.5-7.3-4.7-8-4.9c-1.7-0.4-4.5,0.7-5.3,2.1c-0.3,0.6-1.8,4.2-3.2,8c-1.4,3.8-2.8,7-2.9,7.2c-0.1,0.1-3.5-0.9-7.5-2.3C68,27.2,66,27.1,64.1,29c-1.4,1.4-1.7,3-2.9,15c-0.2,2.6-0.4,3.3-1.1,3.3c-0.4,0-4.2-0.2-8.3-0.5c-8.5-0.6-10-0.3-11.2,2.1c-1,1.8-0.9,2.9,0.4,11.3c0.6,3.9,1.1,7.2,1,7.3s-3.8,0.9-8.3,1.7c-8.5,1.7-9.5,2.1-10.6,4.7c-0.7,1.8-0.4,2.7,3.5,11.4c1.6,3.5,2.9,6.5,2.8,6.5c-0.1,0-3.6,1.8-7.9,3.8c-4.6,2.2-7.9,4.1-8.2,4.7c-0.3,0.5-0.5,1.9-0.5,3c0,1.8,0.5,2.7,5.2,8.4c2.9,3.5,5.1,6.6,5,6.9c-0.1,0.2-2.7,2.6-5.8,5.3c-6.5,5.6-6.7,5.9-7.2,7.9c-0.5,2.6,0.8,4.1,7.9,9.3l6.6,4.9l-4.2,6.2c-2.3,3.4-4.5,6.9-4.9,7.7c-0.8,2-0.1,4.8,1.4,5.8c0.6,0.4,4.3,2,8.2,3.4c3.9,1.5,7.2,2.8,7.3,3c0.1,0.1-0.9,3.5-2.3,7.5c-2.7,7.7-3,10-1.7,11.9c1.2,1.7,2,1.9,10.7,2.9c8.2,0.8,8.2,0.8,8.2,2.1c0,0.6-0.2,4.4-0.5,8.3c-0.6,7.9-0.3,9.5,2.1,10.8c1.8,1,2.9,0.9,11.3-0.4c3.9-0.6,7.2-1.1,7.3-1c0.1,0,0.9,3.8,1.7,8.3c1.7,8.7,2.2,9.7,4.9,10.6c1.9,0.6,2.8,0.3,11.6-3.6c3.3-1.5,6.2-2.7,6.2-2.7c0,0.1,1.8,3.6,3.8,7.8c3.9,8.2,4.5,8.9,8,8.9c1.3,0,2.8-0.9,8.1-5.2c3.5-2.9,6.6-5.1,6.9-5c0.2,0.1,2.6,2.7,5.3,5.8c5.6,6.5,5.8,6.7,7.9,7.2c2.6,0.5,4.1-0.8,9.3-7.9l4.9-6.6l6.2,4.2c6.9,4.7,8.6,5.6,10.4,5.2c2.5-0.4,3.4-1.8,6.4-9.4c1.6-4.2,3.1-7.7,3.2-7.8c0.1-0.1,3.5,0.9,7.5,2.3c8.5,3,10.4,3.1,12.4,1.1c1.4-1.4,1.7-3,2.9-15c0.3-3.9-0.6-3.6,10-2.7c7.7,0.6,9.3,0.3,10.5-2.1c1-1.8,0.9-2.9-0.4-11.3c-0.6-4-1-7.2-0.7-7.4c0.2-0.1,3.8-0.9,8-1.6c4.1-0.7,8-1.7,8.6-2.1c0.6-0.4,1.5-1.5,1.9-2.5c0.9-2.1,0.7-2.7-3.3-11.6c-1.6-3.5-2.9-6.5-2.8-6.6c0.1,0,3.5-1.7,7.5-3.6c4.1-1.9,7.8-4,8.2-4.6c0.5-0.6,0.9-2,0.9-3.1c0-1.9-0.4-2.6-5.2-8.5c-2.9-3.5-5.2-6.6-5.2-6.8c0-0.2,1.7-1.9,3.8-3.6c7.3-6.1,9-7.9,9.3-9.5c0.5-2.7-0.7-4.1-7.8-9.4l-6.7-4.9l4.6-6.7c2.5-3.7,4.7-7.4,4.9-8.1c0.2-0.8,0-2-0.5-3.1c-0.8-1.7-1.4-2-8.5-4.9c-4.2-1.7-7.8-3.2-8.1-3.2c-0.3-0.1,0.6-3.5,2.1-7.5c2.9-8.2,3.1-10.3,1.4-12.3c-1.3-1.5-2.8-1.9-12-2.8c-5.4-0.5-6.5-0.7-6.5-1.4c0-0.4,0.2-4.1,0.5-8.3c0.7-8.4,0.4-10-2.1-11.2c-1.8-1-3.3-0.9-11.5,0.4c-3.8,0.6-7,1-7.1,1c-0.1-0.1-0.9-3.8-1.7-8.3c-2.5-12.6-3.2-12.9-14.9-7.7c-4.2,1.9-7.8,3.4-7.8,3.4c-0.1-0.1-1.7-3.5-3.6-7.5c-1.9-4.1-4-7.8-4.6-8.2c-0.6-0.5-2-0.9-3.1-0.9c-1.9,0-2.6,0.4-8.5,5.2c-3.5,2.9-6.6,5.2-6.8,5.2s-2.6-2.7-5.3-5.9C126.2,10.2,124.2,8.9,121.1,10.7z M175.5,68.5c0.5,0.7,16,46.4,16,47s-10.2,7.6-11.2,7.6c-0.3,0-4.8-4.3-9.9-9.6c-7.4-7.6-9.2-9.3-8.6-7.8c2.8,6.5,9,23.5,8.7,23.8c-0.5,0.9-10.6,7.4-11.3,7.2c-1.2-0.3-36.2-33.6-36.2-34.4c0-0.8,3.6-3.5,9-6.7l1.9-1.2l1.8,1.7c0.9,0.9,5.5,5.6,10.1,10.4c4.6,4.8,8.3,8.5,8.1,8.1c-2.3-5.3-10.2-25.6-10.2-26.1c0-0.7,9.7-7.2,10.9-7.2c0.6,0,5.2,4.5,15.4,15.1c2.4,2.5,4.3,4.4,4.3,4.4c0-0.1-0.6-1.4-1.3-3c-2.1-4.7-9.1-22-9.1-22.6c0-0.6,9.8-7.1,10.7-7.1C174.9,68,175.3,68.2,175.5,68.5z M123.8,108.1c1.5,2.3,2.6,4.4,2.5,4.8c-0.1,0.3-3.4,2.7-7.4,5.3c-3.9,2.6-7.1,4.7-7.1,4.8s0.8,1.4,1.8,2.9c1.1,1.6,2,2.6,2.4,2.4c0.3-0.2,3.4-2.2,6.8-4.5c3.5-2.3,6.6-4,7-3.8c0.9,0.3,5.7,7.5,5.7,8.5c0,0.6-2.3,2.4-6.6,5.3c-3.6,2.4-6.6,4.6-6.6,4.8c0,0.6,3.9,6.3,4.3,6.3c0.1,0,3.6-2.2,7.8-4.9c4.2-2.9,7.7-4.8,8.1-4.7c1,0.4,6,8.1,5.8,8.9c-0.2,0.9-25.3,17.4-26.5,17.4c-1,0-27.2-39.6-26.9-40.7c0.2-0.9,24.5-16.9,25.6-16.9C120.8,103.9,122.1,105.4,123.8,108.1z M102.5,144.9c7.5,11.5,13.1,20.4,12.9,20.8c-0.1,0.4-2.6,2.2-5.4,4l-5.2,3.3l-7.4-3.9c-8.2-4.3-16.1-8.6-19.4-10.5c-1.2-0.7-2-0.9-1.7-0.5c0.2,0.4,3.7,5.6,7.7,11.6c4,6,7.2,11.2,7.2,11.6c0,0.7-8.6,6.8-9.7,6.8c-0.3,0-6.5-9.1-13.9-20.3c-9.5-14.4-13.2-20.4-12.9-21c0.2-0.4,2.9-2.4,6-4.3l5.6-3.6l10.9,5.6c6.1,3.1,11.9,6.2,12.9,6.9c1.1,0.7,2.1,1.2,2.2,1.2s-2.9-4.6-6.6-10.3c-3.7-5.7-6.8-10.6-6.8-11c0-0.8,8.8-6.8,9.8-6.6C88.9,124.8,95.2,133.9,102.5,144.9z"/></g></g></g>
</svg>